# xmcd
#
# Track frame offsets:
#	150
#	11419
#	24348
#	37465
#	61697
#	75620
#	90972
#	110732
#	122888
#	136046
#	149667
#	160285
#	170866
#	195036
#	206898
#	218769
#	240454
#	262160
#	276784
#	299906
#
# Disc length: 4175 seconds
#
# Revision: 0
# Processed by: cddbd v1.5.2PL0 Copyright (c) Steve Scherf et al.
# Submitted via: FairStars CD Ripper 1.80
#
DISCID=2d104d14
DTITLE=Various Artist - A Stack of Blues 60 Original Blues Classics cd3
DYEAR=2014
DGENRE=Blues
TTITLE0=Albert King  - I Get Evil 
TTITLE1=Earl Hooker  - Tanya 
TTITLE2=Magic Sam  - All Your Love 
TTITLE3=Lightnin' Hopkins  - Happy Blues For John Glenn 
TTITLE4=Howlin' Wolf  - Smokestack Lightnin' 
TTITLE5=Buddy Guy  - Skippin' 
TTITLE6=Muddy Waters  - I've Got My Mojo Working 
TTITLE7=Eddie Kirkland  - I Need You, Baby 
TTITLE8=Louisiana Red  - Working Man Blues 
TTITLE9=Guitar Slim  - Story Of My Life 
TTITLE10=John Lee Hooker  - Want Ad Blues 
TTITLE11=Albert Collins  - Collin's Shuffle 
TTITLE12=Deborah Coleman  - I Got To Know 
TTITLE13=Otis Rush and His Band  - All Your Love (I Miss Loving) 
TTITLE14=Freddy King  - San-Ho-Zay 
TTITLE15=Lucky Peterson  - Heart Of Pain 
TTITLE16=Kirk Fletcher  - I Smell Trouble 
TTITLE17=Johnny "Guitar" Watson  - Cuttin' In 
TTITLE18=Phil Guy  - I Once Was A Gambler 
TTITLE19=B.B. King  - Everyday I Have The Blues 
EXTD=
EXTT0=
EXTT1=
EXTT2=
EXTT3=
EXTT4=
EXTT5=
EXTT6=
EXTT7=
EXTT8=
EXTT9=
EXTT10=
EXTT11=
EXTT12=
EXTT13=
EXTT14=
EXTT15=
EXTT16=
EXTT17=
EXTT18=
EXTT19=
PLAYORDER=
